<svg width="608" height="571" viewBox="0 0 608 571" fill="none" xmlns="http://www.w3.org/2000/svg">
<path d="M286.358 248.299C283.29 241.541 284.444 234.465 288.936 232.495C293.427 230.525 299.554 234.408 302.622 241.169C303.887 243.853 304.461 246.803 304.298 249.773L316.919 278.576L302.684 284.274L291.753 255.274C289.395 253.41 287.545 251.018 286.358 248.299Z" fill="#FFAFAF"/>
<path d="M373.586 260.529C381.281 267.765 380.799 280.111 372.563 286.728L332.232 319.134C327.83 322.671 321.298 321.421 318.521 316.512C307.922 299.4 305.924 298.462 299.764 280.924L317.136 274.864L326.931 287.095L348.315 261.937C354.778 254.334 366.314 253.691 373.586 260.529Z" fill="#2E4BDF"/>
<path d="M217.871 216.773V204.022H91.1674V216.773H217.871Z" fill="#DFDFDF"/>
<path d="M538.698 216.773V204.022H411.994V216.773H538.698Z" fill="#DFDFDF"/>
<path d="M161.356 159.981H139.694C131.293 159.981 124.483 166.772 124.483 175.15V254.928C124.483 263.306 131.293 270.097 139.694 270.097H161.356C169.757 270.097 176.568 263.306 176.568 254.928V175.15C176.568 166.772 169.757 159.981 161.356 159.981Z" fill="#3F3D56"/>
<path d="M503.035 159.981H481.373C472.972 159.981 466.162 166.772 466.162 175.15V254.928C466.162 263.306 472.972 270.097 481.373 270.097H503.035C511.436 270.097 518.247 263.306 518.247 254.928V175.15C518.247 166.772 511.436 159.981 503.035 159.981Z" fill="#3F3D56"/>
<g filter="url(#filter0_d_249_2165)">
<path d="M489.305 243.088H158.481C146.98 243.088 137.138 234.897 135.081 223.612L122.429 154.22C116.927 124.042 128.328 93.2964 152.187 73.9491L177.134 20.4237C182.916 8.01648 195.518 0 209.237 0H395.591C405.498 0 415.016 4.17969 421.706 11.4678L467.546 61.4141C501.082 83.9509 520.108 122.929 517.206 163.156L513.028 221.071C512.137 233.416 501.717 243.088 489.305 243.088Z" fill="#2E4BDF"/>
</g>
<path d="M432.845 69.0825H182.904C178.563 69.0825 174.558 66.9165 172.189 63.2897C169.821 59.6619 169.455 55.1322 171.21 51.1737L184.385 21.4705C186.39 16.95 190.887 13.9704 195.841 13.8801L408.909 14.1388C412.966 14.1124 416.84 15.9334 419.3 19.1382L442.999 48.5827C445.978 52.4641 446.479 57.5964 444.309 61.979C442.139 66.3606 437.746 69.0825 432.845 69.0825Z" fill="white"/>
<path d="M470.328 147.515C482.41 147.515 492.204 137.747 492.204 125.699C492.204 113.651 482.41 103.884 470.328 103.884C458.247 103.884 448.453 113.651 448.453 125.699C448.453 137.747 458.247 147.515 470.328 147.515Z" fill="white"/>
<path d="M182.818 147.515C194.9 147.515 204.694 137.747 204.694 125.699C204.694 113.651 194.9 103.884 182.818 103.884C170.736 103.884 160.942 113.651 160.942 125.699C160.942 137.747 170.736 147.515 182.818 147.515Z" fill="white"/>
<path d="M448.973 207.248H210.423V206.728C210.423 194.412 220.47 184.393 232.82 184.393H426.577C438.926 184.393 448.973 194.412 448.973 206.728V207.248Z" fill="#3F3D56"/>
<path d="M155.693 78.5244C154.402 78.5244 153.109 78.1146 152.023 77.2868L143.288 70.6277C142.421 69.9662 141.342 69.602 140.25 69.602H121.176C118.994 69.602 117.038 68.4779 115.944 66.594C114.851 64.7112 114.847 62.46 115.934 60.5731L120.59 52.4835C121.52 50.8675 123.181 49.7556 125.033 49.509L148.898 46.3357C151.872 45.9421 154.641 47.7347 155.492 50.5996L161.49 70.7859C162.15 73.0086 161.458 75.4434 159.725 76.9905C158.584 78.0091 157.14 78.5244 155.693 78.5244Z" fill="#DFDFDF"/>
<path d="M465.16 74.3691C463.713 74.3691 462.27 73.8537 461.128 72.8352C459.396 71.2881 458.703 68.8533 459.364 66.6306L465.361 46.4443C466.213 43.5773 468.986 41.7786 471.956 42.1814L495.82 45.3537C497.672 45.6002 499.333 46.7121 500.264 48.3282L504.92 56.4177C506.006 58.3047 506.002 60.5558 504.909 62.4387C503.816 64.3226 501.86 65.4467 499.678 65.4467H480.604C479.511 65.4467 478.432 65.8109 477.565 66.4723L468.831 73.1314C467.745 73.9592 466.451 74.3691 465.16 74.3691Z" fill="#DFDFDF"/>
<path d="M103.954 39.4133H91.1674V562.22H103.954V39.4133Z" fill="#DFDFDF"/>
<path d="M545.672 39.4133H532.886V562.22H545.672V39.4133Z" fill="#DFDFDF"/>
<path d="M400.499 523.182V546.862L418.454 547.44L417.706 523.182H400.499Z" fill="#FFAFAF"/>
<path d="M396.946 536.358C396.704 536.358 396.466 536.389 396.235 536.454C392.995 537.378 374.239 554.077 368.568 559.173C367.867 559.803 367.495 560.702 367.546 561.64C367.597 562.574 368.063 563.423 368.824 563.969C373.125 567.058 381.937 571.945 392.628 569.97C397.546 569.061 402.509 568.49 406.888 567.986C416.262 566.907 423.666 566.055 423.666 562.745C423.666 557.13 422.118 542.332 420.174 541.71C419.998 541.657 419.794 541.792 419.558 542.121C416.585 546.271 406.372 544.063 405.939 543.967L405.825 543.942L405.761 543.846C405.707 543.766 400.707 536.358 396.946 536.358Z" fill="#2F2E41"/>
<path d="M366.907 523.182V546.862L384.862 547.44L384.114 523.182H366.907Z" fill="#FFAFAF"/>
<path d="M359.668 353.663L350.112 360.883L348.374 442.321L364.591 531.267L385.73 532.134L386.31 447.23L413.531 369.835L408.029 351.642L359.668 353.663Z" fill="#2F2E41"/>
<path d="M404.264 367.525L413.531 369.835L420.191 531.267L396.156 529.246L380.228 415.175L404.264 367.525Z" fill="#2F2E41"/>
<path d="M354.089 571C345.85 571 339.155 567.368 335.58 564.919C334.5 564.179 333.831 563.005 333.746 561.697C333.66 560.377 334.175 559.114 335.161 558.229C344.035 550.269 359.385 536.782 362.484 535.899C366.5 534.751 371.89 542.411 372.584 543.427C373.706 543.656 382.9 545.408 385.495 541.784C385.99 541.094 386.454 541.063 386.759 541.16C389.531 542.046 390.654 559.845 390.654 562.745C390.654 566.569 383.401 567.404 373.363 568.56C368.993 569.063 364.04 569.633 359.141 570.537C357.405 570.858 355.717 571 354.089 571Z" fill="#2F2E41"/>
<path d="M379.525 248.181L386.122 261.435L361.189 273.443L361.495 252.196L379.525 248.181Z" fill="#FFAFAF"/>
<path d="M361.279 258.207C373.669 258.207 383.713 248.19 383.713 235.834C383.713 223.478 373.669 213.461 361.279 213.461C348.888 213.461 338.844 223.478 338.844 235.834C338.844 248.19 348.888 258.207 361.279 258.207Z" fill="#FFAFAF"/>
<path d="M361.127 268.276L384.13 254.72C401.002 266.52 415.052 269.281 415.499 289.826L412.39 338.836L412.572 359.943C412.649 368.803 405.467 376.027 396.582 376.027H363.733C355.04 376.027 348.564 368.029 350.394 359.554L356.596 330.841L349.973 274.88L361.127 268.276Z" fill="#2E4BDF"/>
<path d="M384.349 247.091L380.201 250.054C380.201 250.054 378.981 237.139 377.297 236.565C375.613 235.992 373.34 238.969 373.34 238.969L371.681 243.818L366.194 241.537C366.194 241.537 359.841 238.125 357.595 237.361C355.35 236.596 355.69 230.108 355.69 230.108C355.69 230.108 328.734 233.788 332.784 218.291C332.784 218.291 334.179 206.89 337.164 209.156C340.149 211.422 340.189 205.811 340.189 205.811L346.952 204.362C346.952 204.362 356.232 191.895 374.539 202.501C392.846 213.107 384.349 247.091 384.349 247.091Z" fill="#2F2E41"/>
<path d="M337.529 296.614L331.468 295.693C329.776 295.436 328.602 293.845 328.86 292.157L329.6 287.309C327.401 288.664 325.786 290.933 325.366 293.682C324.718 297.924 327.121 301.918 330.935 303.473L325.632 338.186C325.618 338.273 325.621 338.358 325.619 338.444C321.502 338.786 318.002 341.89 317.352 346.14C316.972 348.632 317.643 351.041 319.034 352.92L319.701 348.553C319.959 346.866 321.554 345.695 323.247 345.952L329.307 346.873C331 347.13 332.173 348.721 331.915 350.409L331.175 355.257C333.374 353.902 334.989 351.633 335.409 348.884C336.058 344.633 333.643 340.63 329.816 339.082C329.839 338.999 329.867 338.919 329.88 338.832L335.183 304.119C339.288 303.766 342.775 300.667 343.423 296.425C343.803 293.934 343.132 291.525 341.742 289.646L341.074 294.013C340.817 295.7 339.221 296.871 337.529 296.614Z" fill="#3F3D56"/>
<path d="M326.24 326.817C318.967 325.256 313.95 320.121 315.035 315.349C316.119 310.576 322.893 307.975 330.169 309.538C333.084 310.122 335.804 311.416 338.1 313.313L368.824 320.331L364.949 335.132L335.071 326.642C332.166 327.423 329.138 327.483 326.24 326.817Z" fill="#FFAFAF"/>
<path d="M387.989 264.173C398.399 262.309 408.064 270.04 408.498 280.578L410.625 332.185C410.857 337.817 405.963 342.31 400.354 341.615C380.256 339.931 381.668 341.984 363.868 336.489L365.06 317.625L381.646 317.374L374.091 285.266C371.807 275.562 378.152 265.934 387.989 264.173Z" fill="#2E4BDF"/>
<defs>
<filter id="filter0_d_249_2165" x="117.066" y="0" width="404.43" height="251.088" filterUnits="userSpaceOnUse" color-interpolation-filters="sRGB">
<feFlood flood-opacity="0" result="BackgroundImageFix"/>
<feColorMatrix in="SourceAlpha" type="matrix" values="0 0 0 0 0 0 0 0 0 0 0 0 0 0 0 0 0 0 127 0" result="hardAlpha"/>
<feOffset dy="4"/>
<feGaussianBlur stdDeviation="2"/>
<feComposite in2="hardAlpha" operator="out"/>
<feColorMatrix type="matrix" values="0 0 0 0 0 0 0 0 0 0 0 0 0 0 0 0 0 0 0.25 0"/>
<feBlend mode="normal" in2="BackgroundImageFix" result="effect1_dropShadow_249_2165"/>
<feBlend mode="normal" in="SourceGraphic" in2="effect1_dropShadow_249_2165" result="shape"/>
</filter>
</defs>
</svg>
