<svg xmlns="http://www.w3.org/2000/svg" width="20" height="21" viewBox="0 0 20 21" fill="none">
  <mask id="mask0_880_7615" style="mask-type:alpha" maskUnits="userSpaceOnUse" x="0" y="0" width="20" height="21">
    <rect y="0.280029" width="20" height="20" fill="#D9D9D9"/>
  </mask>
  <g mask="url(#mask0_880_7615)">
    <path d="M5.83398 17.78C5.37565 17.78 4.98329 17.6168 4.6569 17.2904C4.33051 16.9641 4.16732 16.5717 4.16732 16.1134V5.28003H3.33398V3.61336H7.50065V2.78003H12.5007V3.61336H16.6673V5.28003H15.834V16.1134C15.834 16.5717 15.6708 16.9641 15.3444 17.2904C15.018 17.6168 14.6257 17.78 14.1673 17.78H5.83398ZM14.1673 5.28003H5.83398V16.1134H14.1673V5.28003ZM7.50065 14.4467H9.16732V6.9467H7.50065V14.4467ZM10.834 14.4467H12.5007V6.9467H10.834V14.4467Z" fill="white"/>
  </g>
</svg>