<svg xmlns="http://www.w3.org/2000/svg" width="20" height="21" viewBox="0 0 20 21" fill="none">
  <mask id="mask0_880_7612" style="mask-type:alpha" maskUnits="userSpaceOnUse" x="0" y="0" width="20" height="21">
    <rect y="0.280029" width="20" height="20" fill="#D9D9D9"/>
  </mask>
  <g mask="url(#mask0_880_7612)">
    <path d="M4.16667 16.1134H5.35417L13.5 7.96753L12.3125 6.78003L4.16667 14.9259V16.1134ZM2.5 17.78V14.2384L13.5 3.2592C13.6667 3.10642 13.8507 2.98836 14.0521 2.90503C14.2535 2.8217 14.4653 2.78003 14.6875 2.78003C14.9097 2.78003 15.125 2.8217 15.3333 2.90503C15.5417 2.98836 15.7222 3.11336 15.875 3.28003L17.0208 4.4467C17.1875 4.59947 17.309 4.78003 17.3854 4.98836C17.4618 5.1967 17.5 5.40503 17.5 5.61336C17.5 5.83558 17.4618 6.04739 17.3854 6.24878C17.309 6.45017 17.1875 6.6342 17.0208 6.80086L6.04167 17.78H2.5ZM12.8958 7.3842L12.3125 6.78003L13.5 7.96753L12.8958 7.3842Z" fill="white"/>
  </g>
</svg>