<svg width="200" height="200" viewBox="0 0 200 200" fill="none" xmlns="http://www.w3.org/2000/svg">
<g id="encrypted">
<mask id="mask0_595_8604" style="mask-type:alpha" maskUnits="userSpaceOnUse" x="0" y="0" width="200" height="200">
<rect id="Bounding box" width="200" height="200" fill="#D9D9D9"/>
</mask>
<g mask="url(#mask0_595_8604)">
<path id="encrypted_2" d="M87.5006 125.001H112.501L107.709 98.1263C110.487 96.7374 112.674 94.7235 114.271 92.0846C115.869 89.4458 116.667 86.5291 116.667 83.3346C116.667 78.7513 115.035 74.8277 111.771 71.5638C108.508 68.2999 104.584 66.668 100.001 66.668C95.4173 66.668 91.4937 68.2999 88.2298 71.5638C84.9659 74.8277 83.334 78.7513 83.334 83.3346C83.334 86.5291 84.1326 89.4458 85.7298 92.0846C87.327 94.7235 89.5145 96.7374 92.2923 98.1263L87.5006 125.001ZM100.001 183.335C80.6951 178.474 64.7576 167.397 52.1882 150.105C39.6187 132.814 33.334 113.612 33.334 92.5013V41.668L100.001 16.668L166.667 41.668V92.5013C166.667 113.612 160.383 132.814 147.813 150.105C135.244 167.397 119.306 178.474 100.001 183.335ZM100.001 165.835C114.445 161.251 126.39 152.085 135.834 138.335C145.278 124.585 150.001 109.307 150.001 92.5013V53.1263L100.001 34.3763L50.0007 53.1263V92.5013C50.0007 109.307 54.7229 124.585 64.1673 138.335C73.6118 152.085 85.5562 161.251 100.001 165.835Z" fill="#0D1544"/>
</g>
</g>
</svg>
