<svg width="198" height="211" viewBox="0 0 198 211" fill="none" xmlns="http://www.w3.org/2000/svg">
<path d="M91.1274 1.56948C91.1274 1.56948 19.3039 31.1042 11.6085 34.3145C3.91315 37.5248 0.0654726 45.2295 0.0654726 52.9342C0.0654726 60.6389 -5.70605 161.175 91.1274 209.784C91.1274 209.784 99.916 212.219 106.584 209.784C113.252 207.349 197.901 166.258 197.901 52.6131C197.901 52.6131 197.901 41.0561 184.434 34.6355C170.967 28.2149 105.857 1.56948 105.857 1.56948C105.857 1.56948 97.8608 -1.96185 91.1274 1.56948Z" fill="#6C63FF"/>
<path d="M98.5 194C106.508 194 113 187.508 113 179.5C113 171.492 106.508 165 98.5 165C90.4919 165 84 171.492 84 179.5C84 187.508 90.4919 194 98.5 194Z" fill="#DFE6EC"/>
<path d="M156.768 73.0096C157.102 105.047 98.0814 158.984 98.0814 158.984C98.0814 158.984 40.9397 106.257 40.6053 74.2188C40.4448 58.8337 46.4101 44.015 57.1889 33.0228C67.9678 22.0305 82.6772 15.765 98.0814 15.6046C113.486 15.4443 128.323 21.4022 139.328 32.1677C150.334 42.9332 156.608 57.6245 156.768 73.0096Z" fill="#DFE6EC"/>
<path d="M145 67.5C145 76.6968 142.273 85.6871 137.163 93.334C132.054 100.981 124.792 106.941 116.295 110.46C107.798 113.98 98.4484 114.901 89.4283 113.106C80.4082 111.312 72.1227 106.884 65.6196 100.38C59.1164 93.8773 54.6877 85.5918 52.8935 76.5717C51.0993 67.5516 52.0201 58.202 55.5396 49.7052C59.0591 41.2085 65.0191 33.9462 72.666 28.8367C80.3129 23.7272 89.3032 21 98.5 21C104.604 20.9972 110.648 22.1966 116.288 24.5298C121.928 26.863 127.054 30.2842 131.372 34.5982C135.69 38.9121 139.115 44.0343 141.454 49.6723C143.792 55.3103 144.997 61.3536 145 67.4573V67.5Z" fill="white"/>
<path d="M68.1239 55.1434H59V53.122C59.0007 52.4685 59.2586 51.842 59.717 51.3799C60.1754 50.9179 60.797 50.658 61.4453 50.6572H68.1239V55.1434Z" fill="#CCCCCC"/>
<path d="M138 55.1434H128.876V50.6572H135.555C136.203 50.658 136.824 50.9179 137.283 51.3799C137.741 51.842 137.999 52.4685 138 53.122V55.1434Z" fill="#CCCCCC"/>
<path d="M64.9407 78.2671C64.1825 78.268 63.4557 78.5719 62.9196 79.1123C62.3835 79.6527 62.0819 80.3854 62.0811 81.1496V87.8931C62.0819 88.6573 62.3835 89.39 62.9196 89.9304C63.4557 90.4708 64.1825 90.7747 64.9407 90.7756H68.5679C69.326 90.7747 70.0529 90.4708 70.589 89.9304C71.1251 89.39 71.4267 88.6573 71.4275 87.8931V81.1496C71.4267 80.3854 71.1251 79.6527 70.589 79.1123C70.0529 78.5719 69.326 78.268 68.5679 78.2671H64.9407Z" fill="#3F3D56"/>
<path d="M131.99 91.0001H128.363C127.546 90.9991 126.763 90.6715 126.185 90.0891C125.607 89.5066 125.282 88.717 125.281 87.8933V81.1497C125.282 80.3261 125.607 79.5364 126.185 78.954C126.763 78.3715 127.546 78.0439 128.363 78.043H131.99C132.808 78.0439 133.591 78.3715 134.169 78.954C134.747 79.5364 135.072 80.3261 135.073 81.1497V87.8933C135.072 88.717 134.747 89.5066 134.169 90.0891C133.591 90.6715 132.808 90.9991 131.99 91.0001Z" fill="#3F3D56"/>
<path d="M128.786 59.315H67.9631L74.4503 37.5189C74.7149 36.6187 75.2598 35.8282 76.0044 35.2642C76.7491 34.7002 77.654 34.3926 78.5854 34.3869L118.866 34.0002C119.84 33.9907 120.788 34.3098 121.561 34.9066C122.333 35.5034 122.885 36.3436 123.129 37.2934L128.786 59.315Z" fill="#CCCCCC"/>
<path d="M131.802 68.3775H65.2778L64.6018 57.9289L65.032 56.8597L67.5326 50.6572H129.097L132.478 57.7006L131.802 68.3775Z" fill="#CCCCCC"/>
<path d="M129.695 84.5004H67.2361C64.3936 84.5004 62.0811 82.8113 62.0811 80.7351V68.629L65.1812 65.3381H132.353L134.85 68.6359V80.7351C134.85 82.8113 132.537 84.5004 129.695 84.5004Z" fill="#CCCCCC"/>
<path d="M124.324 55.2051L72.8555 54.59C72.7905 54.5892 72.7265 54.573 72.6687 54.5428C72.611 54.5126 72.5611 54.4691 72.523 54.4159C72.485 54.3627 72.4599 54.3012 72.4497 54.2364C72.4395 54.1716 72.4446 54.1053 72.4644 54.0429L77.3985 38.5261C77.4254 38.4415 77.4782 38.3678 77.5494 38.3154C77.6206 38.2631 77.7064 38.2349 77.7945 38.2349H119.191C119.28 38.2349 119.365 38.263 119.437 38.3154C119.508 38.3677 119.561 38.4414 119.587 38.5259L124.725 54.6579C124.745 54.7211 124.75 54.7883 124.739 54.8539C124.728 54.9195 124.702 54.9815 124.663 55.035C124.624 55.0884 124.573 55.1317 124.514 55.1613C124.455 55.1909 124.39 55.2059 124.324 55.2051Z" fill="white"/>
</svg>
