<svg width="204" height="219" viewBox="0 0 204 219" fill="none" xmlns="http://www.w3.org/2000/svg">
<path d="M93.9045 1.87406C93.9045 1.87406 20.0483 32.4589 12.1351 35.7833C4.2219 39.1078 0.265324 47.0864 0.265324 55.0651C0.265324 63.0437 -5.66954 167.154 93.9045 217.492C93.9045 217.492 102.942 220.013 109.798 217.492C116.655 214.97 203.7 172.418 203.7 54.7326C203.7 54.7326 203.7 42.7646 189.852 36.1158C176.004 29.4669 109.051 1.87406 109.051 1.87406C109.051 1.87406 100.828 -1.78282 93.9045 1.87406Z" fill="#6C63FF"/>
<path d="M62.3291 71.6954C64.2626 71.7357 66.106 72.5985 67.4547 74.0944C68.8035 75.5904 69.5476 77.5975 69.5237 79.6752L68.7138 144.161C68.6877 146.239 67.8943 148.217 66.5081 149.66C65.1219 151.103 63.2566 151.892 61.3223 151.854C59.3881 151.816 57.5435 150.954 56.1942 149.458C54.845 147.961 54.1016 145.953 54.1278 143.875L54.9377 79.389C54.966 77.3114 55.76 75.3345 57.1457 73.8922C58.5314 72.4498 60.3955 71.6598 62.3291 71.6954Z" fill="#535461"/>
<path d="M141.782 72.7422C139.849 72.7825 138.006 73.6453 136.657 75.1413C135.308 76.6373 134.564 78.6444 134.588 80.7221L135.398 145.208C135.424 147.286 136.217 149.264 137.603 150.707C138.99 152.15 140.855 152.939 142.789 152.901C144.723 152.863 146.568 152.001 147.917 150.505C149.267 149.008 150.01 147 149.984 144.921L149.174 80.4359C149.146 78.3582 148.352 76.3814 146.966 74.939C145.58 73.4967 143.716 72.7067 141.782 72.7422Z" fill="#535461"/>
<path d="M58.7517 144.827L51.21 144.608C43.1579 144.375 35.4511 140.716 29.7848 134.435C24.1186 128.155 20.9571 119.768 20.9959 111.119C21.0151 106.836 21.8194 102.619 23.3629 98.7062C24.9064 94.7939 27.1588 91.2636 29.9916 88.3171C35.7127 82.3662 43.4503 79.1539 51.5024 79.387L59.0441 79.6053L58.7517 144.827Z" fill="#E6E6E6"/>
<path d="M145.36 144.827L152.902 144.608C160.954 144.375 168.661 140.716 174.327 134.435C179.993 128.155 183.155 119.768 183.116 111.119C183.097 106.836 182.292 102.619 180.749 98.7062C179.205 94.7939 176.953 91.2636 174.12 88.3171C168.399 82.3662 160.661 79.1539 152.609 79.387L145.068 79.6053L145.36 144.827Z" fill="#E6E6E6"/>
<path d="M166.186 122.59L163.189 121.524C165.437 114.218 163.311 109.849 163.189 102.155C162.63 64.3261 135.879 40.623 100.678 41.2236C65.4779 41.8243 41.5912 68.8267 42.1501 106.656C42.2499 113.863 39.9795 115.394 42.1501 122.213L39.1642 123.313C35.7239 112.503 34.7263 100.968 36.2541 89.6621C37.7819 78.3558 41.7911 67.6025 47.9506 58.2906C54.11 48.9787 62.2427 41.3755 71.677 36.1093C81.1112 30.843 91.576 28.0648 102.207 28.0043C112.838 27.9438 123.329 30.6026 132.815 35.7611C142.3 40.9196 150.508 48.4298 156.759 57.671C163.01 66.9122 167.125 77.6193 168.764 88.9075C170.403 100.196 169.519 111.741 166.186 122.59Z" fill="#E6E6E6"/>
</svg>
