<svg width="922" height="381" viewBox="0 0 922 381" fill="none" xmlns="http://www.w3.org/2000/svg">
<g clip-path="url(#clip0_62_2297)">
<path d="M615.463 80.1164C623.911 80.1164 630.76 73.2679 630.76 64.8199C630.76 56.3719 623.911 49.5234 615.463 49.5234C607.015 49.5234 600.167 56.3719 600.167 64.8199C600.167 73.2679 607.015 80.1164 615.463 80.1164Z" fill="#6C63FF"/>
<path d="M616.938 110.894H613.805L615.233 62.5161L616.938 110.894Z" fill="#3F3D56"/>
<path d="M615.509 71.685L618.873 67.031L615.463 72.837L615.095 72.192L615.509 71.685Z" fill="#3F3D56"/>
<path d="M615.141 76.384L611.777 71.731L615.187 77.5359L615.555 76.891L615.141 76.384Z" fill="#3F3D56"/>
<path d="M755.78 80.1164C764.228 80.1164 771.077 73.2679 771.077 64.8199C771.077 56.3719 764.228 49.5234 755.78 49.5234C747.332 49.5234 740.484 56.3719 740.484 64.8199C740.484 73.2679 747.332 80.1164 755.78 80.1164Z" fill="#6C63FF"/>
<path d="M757.254 110.894H754.121L755.55 62.5161L757.254 110.894Z" fill="#3F3D56"/>
<path d="M755.826 71.685L759.19 67.031L755.78 72.837L755.411 72.192L755.826 71.685Z" fill="#3F3D56"/>
<path d="M755.458 76.384L752.094 71.731L755.504 77.5359L755.872 76.891L755.458 76.384Z" fill="#3F3D56"/>
<path d="M659.774 65.4382C672.251 65.4382 682.366 55.3235 682.366 42.8465C682.366 30.3695 672.251 20.2549 659.774 20.2549C647.297 20.2549 637.183 30.3695 637.183 42.8465C637.183 55.3235 647.297 65.4382 659.774 65.4382Z" fill="#6C63FF"/>
<path d="M661.952 110.894H657.325L659.434 39.4438L661.952 110.894Z" fill="#3F3D56"/>
<path d="M659.843 52.985L664.81 46.113L659.775 54.687L659.23 53.734L659.843 52.985Z" fill="#3F3D56"/>
<path d="M659.298 59.9259L654.331 53.054L659.366 61.627L659.911 60.675L659.298 59.9259Z" fill="#3F3D56"/>
<path d="M714.868 65.4382C727.345 65.4382 737.46 55.3235 737.46 42.8465C737.46 30.3695 727.345 20.2549 714.868 20.2549C702.391 20.2549 692.277 30.3695 692.277 42.8465C692.277 55.3235 702.391 65.4382 714.868 65.4382Z" fill="#6C63FF"/>
<path d="M717.046 110.894H712.419L714.528 39.4438L717.046 110.894Z" fill="#3F3D56"/>
<path d="M714.936 52.985L719.904 46.113L714.868 54.687L714.324 53.734L714.936 52.985Z" fill="#3F3D56"/>
<path d="M714.392 59.9259L709.424 53.054L714.46 61.627L715.004 60.675L714.392 59.9259Z" fill="#3F3D56"/>
<path d="M571.969 65.4382C584.446 65.4382 594.561 55.3235 594.561 42.8465C594.561 30.3695 584.446 20.2549 571.969 20.2549C559.492 20.2549 549.377 30.3695 549.377 42.8465C549.377 55.3235 559.492 65.4382 571.969 65.4382Z" fill="#6C63FF"/>
<path d="M574.146 110.894H569.519L571.629 39.4438L574.146 110.894Z" fill="#3F3D56"/>
<path d="M572.037 52.985L577.004 46.113L571.969 54.687L571.425 53.734L572.037 52.985Z" fill="#3F3D56"/>
<path d="M571.493 59.9259L566.525 53.054L571.561 61.627L572.105 60.675L571.493 59.9259Z" fill="#3F3D56"/>
<path d="M839.25 345.631H101.984C92.6948 345.631 83.4969 343.801 74.915 340.247C66.3332 336.692 58.5355 331.482 51.9673 324.914C45.399 318.345 40.1888 310.548 36.6341 301.966C33.0793 293.384 31.2498 284.186 31.2498 274.897C31.2498 265.608 33.0793 256.41 36.6341 247.828C40.1888 239.246 45.399 231.449 51.9673 224.88C58.5355 218.312 66.3332 213.102 74.915 209.547C83.4969 205.993 92.6948 204.163 101.984 204.163H837.617C844.833 204.163 851.752 201.297 856.854 196.195C861.956 191.093 864.823 184.173 864.823 176.958C864.823 169.742 861.956 162.823 856.854 157.721C851.752 152.619 844.833 149.752 837.617 149.752H31.2498V127.988V104.5L837.617 106.224C856.377 106.224 874.368 113.676 887.634 126.941C900.899 140.206 908.351 158.198 908.351 176.958C908.351 195.717 900.899 213.709 887.634 226.974C874.368 240.239 856.377 247.692 837.617 247.692H101.984C94.7684 247.692 87.8486 250.558 82.7466 255.66C77.6446 260.762 74.7784 267.682 74.7784 274.897C74.7784 282.112 77.6446 289.032 82.7466 294.134C87.8486 299.236 94.7684 302.102 101.984 302.102H839.25V345.631Z" fill="#E6E6E6"/>
<path d="M138.439 126.9H104.704V129.076H138.439V126.9Z" fill="white"/>
<path d="M234.202 126.9H200.467V129.076H234.202V126.9Z" fill="white"/>
<path d="M329.965 126.9H296.23V129.076H329.965V126.9Z" fill="white"/>
<path d="M425.728 126.9H391.993V129.076H425.728V126.9Z" fill="white"/>
<path d="M521.491 126.9H487.756V129.076H521.491V126.9Z" fill="white"/>
<path d="M617.254 126.9H583.519V129.076H617.254V126.9Z" fill="white"/>
<path d="M713.017 126.9H679.282V129.076H713.017V126.9Z" fill="white"/>
<path d="M808.78 126.9H775.045V129.076H808.78V126.9Z" fill="white"/>
<path d="M138.439 224.839H104.704V227.016H138.439V224.839Z" fill="white"/>
<path d="M234.202 224.839H200.467V227.016H234.202V224.839Z" fill="white"/>
<path d="M329.965 224.839H296.23V227.016H329.965V224.839Z" fill="white"/>
<path d="M425.728 224.839H391.993V227.016H425.728V224.839Z" fill="white"/>
<path d="M521.491 224.839H487.756V227.016H521.491V224.839Z" fill="white"/>
<path d="M617.254 224.839H583.519V227.016H617.254V224.839Z" fill="white"/>
<path d="M713.017 224.839H679.282V227.016H713.017V224.839Z" fill="white"/>
<path d="M808.78 224.839H775.045V227.016H808.78V224.839Z" fill="white"/>
<path d="M138.439 322.779H104.704V324.955H138.439V322.779Z" fill="white"/>
<path d="M234.202 322.779H200.467V324.955H234.202V322.779Z" fill="white"/>
<path d="M329.965 322.779H296.23V324.955H329.965V322.779Z" fill="white"/>
<path d="M425.728 322.779H391.993V324.955H425.728V322.779Z" fill="white"/>
<path d="M521.491 322.779H487.756V324.955H521.491V322.779Z" fill="white"/>
<path d="M617.254 322.779H583.519V324.955H617.254V322.779Z" fill="white"/>
<path d="M713.017 322.779H679.282V324.955H713.017V322.779Z" fill="white"/>
<path d="M808.78 322.779H775.045V324.955H808.78V322.779Z" fill="white"/>
<path d="M776.152 315.213L795.604 315.223L795.606 312.135L776.153 312.125L776.152 315.213Z" fill="#3F3D56"/>
<path d="M635.507 312.822L639.521 313.75L792.054 313.832L793.426 310.636C795.818 305.154 796.639 299.115 795.797 293.194C795.14 288.78 793.494 284.395 789.755 282.49L782.986 237.406L698.597 237.255L665.948 263.589C665.948 263.589 650.546 263.312 642.179 273.728C639.161 277.602 637.379 282.294 637.065 287.194L636.735 292.613L635.507 312.822Z" fill="#6C63FF"/>
<path d="M669.009 330.903C679.412 330.903 687.844 322.47 687.844 312.068C687.844 301.665 679.412 293.232 669.009 293.232C658.607 293.232 650.174 301.665 650.174 312.068C650.174 322.47 658.607 330.903 669.009 330.903Z" fill="#3F3D56"/>
<path d="M669.009 321.981C674.484 321.981 678.923 317.542 678.923 312.068C678.923 306.593 674.484 302.154 669.009 302.154C663.534 302.154 659.096 306.593 659.096 312.068C659.096 317.542 663.534 321.981 669.009 321.981Z" fill="#CCCCCC"/>
<path d="M761.95 330.952C772.352 330.952 780.785 322.52 780.785 312.117C780.785 301.715 772.352 293.282 761.95 293.282C751.547 293.282 743.115 301.715 743.115 312.117C743.115 322.52 751.547 330.952 761.95 330.952Z" fill="#3F3D56"/>
<path d="M761.95 322.031C767.425 322.031 771.863 317.592 771.863 312.117C771.863 306.642 767.425 302.204 761.95 302.204C756.475 302.204 752.037 306.642 752.037 312.117C752.037 317.592 756.475 322.031 761.95 322.031Z" fill="#CCCCCC"/>
<path d="M678.92 260.511L724.483 260.53H730.045L739.435 260.537V259.852L739.442 251.594L739.449 242.322H733.201L727.639 242.316L717.787 242.309H712.225L700.851 242.302L678.92 260.511Z" fill="white"/>
<path d="M746.849 260.544L770.929 260.557L770.935 255.832V247.574L770.942 242.342H767.416L761.854 242.335L746.856 242.329L746.849 260.544Z" fill="white"/>
<path d="M736.339 279.991L739.427 279.993L739.43 274.126L736.342 274.124L736.339 279.991Z" fill="#3F3D56"/>
<path d="M691.264 268.851L691.266 265.764L685.399 265.761L685.397 268.848L691.264 268.851Z" fill="#3F3D56"/>
<path d="M689.104 267.121L688.764 267.121C687.916 267.12 687.077 266.953 686.295 266.628C685.512 266.304 684.801 265.828 684.202 265.228C683.603 264.629 683.128 263.917 682.804 263.134C682.48 262.351 682.313 261.512 682.314 260.664C682.314 259.817 682.482 258.978 682.807 258.195C683.131 257.412 683.607 256.701 684.207 256.102C684.806 255.503 685.518 255.028 686.301 254.704C687.084 254.38 687.923 254.214 688.771 254.214L689.11 254.214L689.104 267.121Z" fill="#3F3D56"/>
<path d="M636.735 292.613C639.07 292.867 641.419 292.289 643.37 290.98C645.32 289.672 646.747 287.717 647.397 285.46C648.048 283.203 647.881 280.789 646.927 278.643C645.972 276.497 644.291 274.757 642.179 273.729C639.161 277.602 637.379 282.294 637.065 287.194L636.735 292.613Z" fill="#3F3D56"/>
<path d="M727.639 242.316L739.435 259.852L739.442 251.594L733.201 242.322L727.639 242.316Z" fill="#F2F2F2"/>
<path d="M761.854 242.335L770.935 255.832V247.574L767.416 242.342L761.854 242.335Z" fill="#F2F2F2"/>
<path d="M712.225 242.309L724.483 260.53H730.045L717.787 242.309H712.225Z" fill="#F2F2F2"/>
<path d="M777 145H696V204.211H696.049V216L707.923 204.211H777V145Z" fill="#6C63FF"/>
<path d="M733.347 187L723 173.768L729.017 169.112L733.916 175.378L750.466 158L756 163.215L733.347 187Z" fill="white"/>
<path d="M123.399 216.598L105.474 216.608L105.472 213.763L123.397 213.753L123.399 216.598Z" fill="#3F3D56"/>
<path d="M253 214.077L249.302 214.925L108.745 215L107.481 212.079C105.277 207.068 104.52 201.548 105.296 196.135C105.901 192.1 107.418 188.091 110.864 186.35L117.101 145.138L194.864 145L224.95 169.072C224.95 169.072 239.142 168.819 246.852 178.341C249.633 181.882 251.276 186.171 251.565 190.651L251.869 195.604L253 214.077Z" fill="#6C63FF"/>
<path d="M222 231C212.611 231 205 223.165 205 213.5C205 203.835 212.611 196 222 196C231.389 196 239 203.835 239 213.5C239 223.165 231.389 231 222 231Z" fill="#3F3D56"/>
<path d="M222 223C217.029 223 213 218.971 213 214C213 209.029 217.029 205 222 205C226.971 205 231 209.029 231 214C231 218.971 226.971 223 222 223Z" fill="#CCCCCC"/>
<path d="M136.5 231C126.835 231 119 223.165 119 213.5C119 203.835 126.835 196 136.5 196C146.165 196 154 203.835 154 213.5C154 223.165 146.165 231 136.5 231Z" fill="#3F3D56"/>
<path d="M136.5 223C131.253 223 127 218.971 127 214C127 209.029 131.253 205 136.5 205C141.747 205 146 209.029 146 214C146 218.971 141.747 223 136.5 223Z" fill="#CCCCCC"/>
<path d="M213 165.976L170.845 165.994H165.7L157.012 166V165.361L157.006 157.663L157 149.018H162.779L167.926 149.012L177.04 149.006H182.186L192.709 149L213 165.976Z" fill="white"/>
<path d="M150 165.988L128.012 166L128.006 161.593V153.892L128 149.012H131.219L136.298 149.006L149.994 149L150 165.988Z" fill="white"/>
<path d="M160.089 184.146L157.244 184.148L157.241 178.742L160.086 178.74L160.089 184.146Z" fill="#3F3D56"/>
<path d="M201.618 173.881L201.616 171.036L207.022 171.033L207.024 173.878L201.618 173.881Z" fill="#3F3D56"/>
<path d="M203.612 172.283L203.925 172.283C205.502 172.282 207.014 171.655 208.129 170.539C209.243 169.423 209.869 167.91 209.868 166.333C209.867 164.756 209.24 163.244 208.124 162.129C207.008 161.014 205.496 160.389 203.918 160.39L203.605 160.39L203.612 172.283Z" fill="#3F3D56"/>
<path d="M252 195.944C249.887 196.186 247.762 195.636 245.997 194.393C244.232 193.15 242.942 191.292 242.353 189.148C241.765 187.003 241.915 184.709 242.779 182.67C243.643 180.631 245.164 178.977 247.074 178C249.805 181.68 251.417 186.139 251.701 190.795L252 195.944Z" fill="#3F3D56"/>
<path d="M168 149L157.006 166L157 157.996L162.815 149.006L168 149Z" fill="#F2F2F2"/>
<path d="M137 149L128 162V154.046L131.488 149.006L137 149Z" fill="#F2F2F2"/>
<path d="M182 149L170.994 166H166L177.006 149H182Z" fill="#F2F2F2"/>
<path d="M280 53H187V121.385H187.057V135L200.69 121.385H280V53Z" fill="#6C63FF"/>
<path d="M226.601 102L215 86.9424L221.746 81.645L227.239 88.7745L245.795 69L252 74.9347L226.601 102Z" fill="white"/>
</g>
<defs>
<clipPath id="clip0_62_2297">
<rect width="922" height="381" fill="white"/>
</clipPath>
</defs>
</svg>
