<svg width="193" height="205" viewBox="0 0 193 205" fill="none" xmlns="http://www.w3.org/2000/svg">
<path d="M88.8873 2.22925C88.8873 2.22925 19.4353 30.7138 11.994 33.81C4.55275 36.9061 0.83211 44.3369 0.83211 51.7677C0.83211 59.1984 -4.74884 156.16 88.8873 203.041C88.8873 203.041 97.3857 205.389 103.833 203.041C110.281 200.692 192.135 161.062 192.135 51.458C192.135 51.458 192.135 40.3119 179.113 34.1196C166.091 27.9273 103.13 2.22925 103.13 2.22925C103.13 2.22925 95.3984 -1.17652 88.8873 2.22925Z" fill="#6C63FF"/>
<path d="M78.1135 143.752L48.0693 105.211L65.5413 91.6537L79.7672 109.902L127.825 59.2881L143.895 74.4788L78.1135 143.752Z" fill="white"/>
</svg>
