<svg width="198" height="211" viewBox="0 0 198 211" fill="none" xmlns="http://www.w3.org/2000/svg">
<path d="M91.1274 1.56948C91.1274 1.56948 19.3039 31.1042 11.6085 34.3145C3.91315 37.5248 0.0654726 45.2295 0.0654726 52.9342C0.0654726 60.6389 -5.70605 161.175 91.1274 209.784C91.1274 209.784 99.916 212.219 106.584 209.784C113.252 207.349 197.901 166.258 197.901 52.6131C197.901 52.6131 197.901 41.0561 184.434 34.6355C170.967 28.2149 105.857 1.56948 105.857 1.56948C105.857 1.56948 97.8608 -1.96185 91.1274 1.56948Z" fill="#6C63FF"/>
<path d="M162 90.9999C162 107.709 155.363 123.733 143.548 135.548C131.733 147.363 115.709 154 99 154C82.2914 154 66.2671 147.363 54.4523 135.548C42.6375 123.733 36 107.709 36 90.9999C36 89.0031 36.0959 87.0383 36.2774 85.095C37.7956 68.9694 45.4661 54.048 57.6963 43.429C69.9265 32.8101 85.7767 27.3095 101.956 28.0694C118.135 28.8293 133.4 35.7913 144.581 47.5098C155.762 59.2283 162 74.803 162 90.9999Z" fill="#E6E6E6"/>
<path d="M122.955 96.2745C121.005 93.7445 118.44 91.7407 115.497 90.4483C111.867 88.9387 108.118 87.7237 104.288 86.8153V65.2058C110.175 66.0818 115.697 68.566 120.228 72.3776L124.673 63.0261C122.116 60.7785 119.182 58.9889 116.001 57.7381C112.475 56.3293 108.774 55.3926 104.997 54.9528V44H94.7027V55.0604C90.7275 55.501 86.8928 56.7716 83.4536 58.7876C80.3467 60.6022 77.7313 63.1321 75.8309 66.1612C74.0174 69.1173 73.0777 72.5149 73.1179 75.9702C72.9407 79.7147 74.04 83.4098 76.2403 86.4655C78.2656 89.1111 80.9402 91.2042 84.0121 92.5474C87.6999 94.1015 91.5131 95.3483 95.4117 96.2745V116.983C88.4644 116.465 81.8447 113.859 76.4448 109.515L72 118.88C75.0193 121.343 78.4528 123.265 82.1446 124.558C86.1899 125.987 90.4161 126.856 94.7028 127.141V138H104.997V126.94C110.715 126.323 116.078 123.897 120.282 120.023C122.134 118.271 123.597 116.158 124.578 113.819C125.559 111.48 126.037 108.965 125.982 106.433C126.153 102.808 125.087 99.2313 122.955 96.2745ZM95.4118 84.5279C92.9041 83.7775 90.5726 82.5426 88.5528 80.8949C87.7527 80.1924 87.1201 79.3237 86.7005 78.3512C86.2809 77.3788 86.0847 76.3267 86.126 75.2706C86.0517 72.874 86.9441 70.5463 88.6074 68.7985C90.4516 66.9648 92.8308 65.7462 95.4118 65.3135V84.5279ZM110.752 113.161C109.012 114.922 106.747 116.086 104.288 116.485V98.6696C106.638 99.2919 108.837 100.377 110.752 101.859C111.477 102.47 112.054 103.236 112.439 104.097C112.824 104.959 113.006 105.896 112.974 106.837C113.069 109.146 112.275 111.406 110.752 113.161Z" fill="#6C63FF"/>
</svg>
