<svg width="198" height="211" viewBox="0 0 198 211" fill="none" xmlns="http://www.w3.org/2000/svg">
<path d="M91.1274 1.56948C91.1274 1.56948 19.3039 31.1042 11.6085 34.3145C3.91315 37.5248 0.0654726 45.2295 0.0654726 52.9342C0.0654726 60.6389 -5.70605 161.175 91.1274 209.784C91.1274 209.784 99.916 212.219 106.584 209.784C113.252 207.349 197.901 166.258 197.901 52.6131C197.901 52.6131 197.901 41.0561 184.434 34.6355C170.967 28.2149 105.857 1.56948 105.857 1.56948C105.857 1.56948 97.8608 -1.96185 91.1274 1.56948Z" fill="#6C63FF"/>
<path d="M71.5036 38.8417C67.8534 40.7161 67.1996 41.7852 65.2777 41.8524C63.3559 41.9196 56.1688 43.2288 57.3557 47.0159L61.9801 51.5845L62.1144 51.7182L62.3813 54.1447L50.8505 65.0114C50.8505 65.0114 38.6982 56.0639 35.2971 63.8445C31.896 71.6251 32.1734 74.0578 30.7095 78.3016C29.2455 82.5453 29.3999 83.9201 28.2065 83.6156C27.0131 83.311 27.2692 80.3432 27.2692 80.3432C27.2692 80.3432 27.2271 80.1939 27.1575 79.9169C26.2174 76.1998 20.2976 49.1624 43.7807 37.6095C43.7807 37.6095 52.8434 39.3682 57.3077 30.8467C60.3909 24.9562 65.4408 26.8203 68.5634 28.9775C69.5849 29.6528 70.4905 30.4629 71.247 31.3778C71.9043 32.2926 72.4484 33.2655 72.8687 34.2779C73.5007 35.9026 73.5953 37.763 71.5036 38.8417Z" fill="#D0D2D5"/>
<path opacity="0.1" d="M56.4369 52.8836L56.577 54.8959L47.74 64.2147C47.74 64.2147 38.9186 57.0636 36.2018 63.6189C33.4849 70.1741 33.6326 72.1914 32.4416 75.7573C31.2506 79.3233 31.3323 80.4634 30.4521 80.2388C29.572 80.0142 29.834 77.5388 29.834 77.5388C29.834 77.5388 29.8063 77.4157 29.7612 77.1868C30.187 73.6757 33.0224 53.2251 40.8657 56.3519C40.8657 56.3519 46.6586 61.1286 48.0261 60.1618C49.1087 59.3962 54.2427 54.714 56.3367 52.7896L56.4369 52.8836Z" fill="black"/>
<path d="M163.5 129.5C162.468 130.689 155.593 138.91 153.489 140.754L152.502 141.623C152.502 141.623 151.751 143.399 147.757 139.94C143.762 136.481 47.7177 63.8023 47.7177 63.8023L47.5453 61.4342L59.5 50.0001L165.5 127C165.5 127 166.063 127.499 163.5 129.5Z" fill="#CACACA"/>
<path d="M137.072 66.0913L127.708 57.0245L58.146 122.722L67.6587 134.018L137.072 66.0913Z" fill="#E6E6E6"/>
<path d="M66.913 123.087C64.9105 120.955 62.3149 119.457 59.4542 118.784C56.5935 118.111 53.5963 118.293 50.8416 119.306C48.087 120.32 45.6985 122.119 43.9783 124.478C42.2581 126.836 41.2835 129.647 41.1776 132.556C41.0717 135.464 41.8394 138.339 43.3835 140.818C44.9276 143.296 47.1788 145.265 49.8524 146.478C52.526 147.69 55.5021 148.091 58.4041 147.629C61.3061 147.168 64.0037 145.864 66.1559 143.884C69.0419 141.228 70.743 137.545 70.885 133.645C71.0269 129.745 69.5982 125.947 66.913 123.087ZM51.3677 137.392C50.5095 136.478 49.9441 135.333 49.743 134.101C49.5418 132.87 49.7141 131.607 50.2378 130.473C50.7615 129.339 51.6133 128.385 52.6853 127.731C53.7574 127.077 55.0016 126.752 56.2607 126.798C57.5197 126.844 58.7371 127.259 59.7587 127.99C60.7804 128.721 61.5605 129.735 62.0004 130.904C62.4402 132.074 62.5202 133.345 62.23 134.559C61.9399 135.772 61.2928 136.873 60.3704 137.722C59.1335 138.86 57.4902 139.465 55.8019 139.403C54.1136 139.341 52.5185 138.617 51.3677 137.392Z" fill="#E6E6E6"/>
<path d="M160.752 48.8731L153.403 55.4902L141.55 51.5098L139.151 39.0176L145.979 32.8695C142.309 32.2446 138.535 32.784 135.186 34.4122C131.838 36.0404 129.083 38.6756 127.307 41.9486C125.532 45.2215 124.825 48.9679 125.287 52.6626C125.748 56.3573 127.354 59.815 129.88 62.5509C132.405 65.2869 135.723 67.1639 139.369 67.9188C143.015 68.6737 146.806 68.2687 150.211 66.7605C153.615 65.2522 156.462 62.7165 158.352 59.5087C160.243 56.3009 161.082 52.5819 160.752 48.8731Z" fill="#E6E6E6"/>
</svg>
